<svg xmlns="http://www.w3.org/2000/svg" xmlns:xlink="http://www.w3.org/1999/xlink" width="1920" zoomAndPan="magnify" viewBox="0 0 1440 809.999993" height="1080" preserveAspectRatio="xMidYMid meet" version="1.0"><defs><clipPath id="07613aa5af"><path d="M 464.738281 168.15625 L 975.144531 168.15625 L 975.144531 652.097656 L 464.738281 652.097656 Z M 464.738281 168.15625 " clip-rule="nonzero"/></clipPath><clipPath id="b47db2296c"><path d="M 950.394531 652.097656 L 489.582031 652.097656 C 475.910156 652.097656 464.832031 641.015625 464.832031 627.347656 L 464.832031 192.90625 C 464.832031 179.234375 475.910156 168.15625 489.582031 168.15625 L 950.394531 168.15625 C 964.066406 168.15625 975.144531 179.234375 975.144531 192.90625 L 975.144531 627.347656 C 975.144531 641.015625 964.066406 652.097656 950.394531 652.097656 Z M 950.394531 652.097656 " clip-rule="nonzero"/></clipPath><clipPath id="ba3843f24a"><path d="M 465.144531 168.347656 L 975.144531 168.347656 L 975.144531 652.09375 L 465.144531 652.09375 Z M 465.144531 168.347656 " clip-rule="nonzero"/></clipPath><clipPath id="1fd511526d"><path d="M 950.398438 652.09375 L 489.589844 652.09375 C 475.921875 652.09375 464.839844 641.015625 464.839844 627.34375 L 464.839844 192.914062 C 464.839844 179.242188 475.921875 168.164062 489.589844 168.164062 L 950.398438 168.164062 C 964.066406 168.164062 975.144531 179.242188 975.144531 192.914062 L 975.144531 627.34375 C 975.144531 641.015625 964.066406 652.09375 950.398438 652.09375 Z M 950.398438 652.09375 " clip-rule="nonzero"/></clipPath><clipPath id="e18288a06b"><path d="M 568 251 L 889 251 L 889 560 L 568 560 Z M 568 251 " clip-rule="nonzero"/></clipPath><clipPath id="685d6d2c5b"><path d="M 839.359375 559.785156 L 568.527344 303.144531 L 617.46875 251.492188 L 888.304688 508.132812 Z M 839.359375 559.785156 " clip-rule="nonzero"/></clipPath><clipPath id="0b08db394d"><path d="M 563 247 L 889 247 L 889 573 L 563 573 Z M 563 247 " clip-rule="nonzero"/></clipPath><clipPath id="61ee027e64"><path d="M 563.460938 523.164062 L 838.921875 247.707031 L 888.308594 297.09375 L 612.847656 572.550781 Z M 563.460938 523.164062 " clip-rule="nonzero"/></clipPath><clipPath id="15e42591a1"><path d="M 555.28125 233.652344 L 898.03125 233.652344 L 898.03125 584.652344 L 555.28125 584.652344 Z M 555.28125 233.652344 " clip-rule="nonzero"/></clipPath></defs><g clip-path="url(#07613aa5af)"><g clip-path="url(#b47db2296c)"><path fill="#ffffff" d="M 975.144531 652.097656 L 464.738281 652.097656 L 464.738281 168.15625 L 975.144531 168.15625 Z M 975.144531 652.097656 " fill-opacity="1" fill-rule="nonzero"/></g></g><g clip-path="url(#ba3843f24a)"><g clip-path="url(#1fd511526d)"><path stroke-linecap="butt" transform="matrix(-0.75, 0, 0, -0.75, 975.146453, 652.094939)" fill="none" stroke-linejoin="miter" d="M 32.997356 0.00158559 L 647.408845 0.00158559 C 665.632804 0.00158559 680.408847 14.77242 680.408847 33.001587 L 680.408847 612.2412 C 680.408847 630.470367 665.632804 645.241201 647.408845 645.241201 L 32.997356 645.241201 C 14.773397 645.241201 0.00256255 630.470367 0.00256255 612.2412 L 0.00256255 33.001587 C 0.00256255 14.77242 14.773397 0.00158559 32.997356 0.00158559 Z M 32.997356 0.00158559 " stroke="#000000" stroke-width="28" stroke-opacity="1" stroke-miterlimit="4"/></g></g><g clip-path="url(#e18288a06b)"><g clip-path="url(#685d6d2c5b)"><path fill="#d56798" d="M 839.359375 559.785156 L 568.59375 303.207031 L 617.539062 251.558594 L 888.304688 508.132812 Z M 839.359375 559.785156 " fill-opacity="1" fill-rule="nonzero"/></g></g><g clip-path="url(#0b08db394d)"><g clip-path="url(#61ee027e64)"><path fill="#d56798" d="M 563.460938 523.164062 L 838.945312 247.683594 L 888.332031 297.070312 L 612.847656 572.550781 Z M 563.460938 523.164062 " fill-opacity="1" fill-rule="nonzero"/></g></g><g clip-path="url(#15e42591a1)"><path fill="#000000" d="M 604.097656 583.539062 L 604.085938 583.539062 Z M 898.050781 507.34375 C 898.050781 508.054688 897.988281 508.75 897.867188 509.4375 L 897.867188 509.5 C 897.867188 509.5 897.84375 509.539062 897.84375 509.539062 C 897.105469 512.414062 896.070312 515.789062 894.511719 518.941406 C 893 521.976562 891.011719 524.820312 888.230469 526.71875 C 888.199219 526.769531 888.15625 526.820312 888.117188 526.871094 C 885.726562 530.84375 882.597656 534.074219 879.1875 536.90625 C 875.761719 539.757812 872.046875 542.222656 868.464844 544.640625 L 868.425781 544.671875 L 868.394531 544.695312 C 865.316406 546.53125 861.375 550.222656 857.125 554.113281 C 852.867188 558 848.269531 562.105469 843.558594 564.824219 C 840.417969 566.640625 837.1875 567.863281 833.914062 567.871094 C 832.148438 567.871094 830.382812 567.503906 828.699219 566.683594 C 827.027344 565.871094 825.445312 564.628906 823.980469 562.9375 C 814.292969 552.328125 802.859375 543.351562 791.625 534.023438 C 780.398438 524.695312 769.363281 515.03125 760.558594 502.964844 C 759.597656 501.609375 757.574219 499.445312 755.019531 496.847656 C 752.453125 494.242188 749.332031 491.175781 746.082031 487.871094 C 740.058594 481.746094 733.570312 474.839844 729.167969 468.355469 C 717.039062 480.195312 703.75 490.671875 693.425781 503.742188 C 686.089844 513.480469 677.765625 522.316406 669.167969 530.820312 C 661.675781 538.804688 655.324219 548.242188 646.363281 555.457031 C 639.253906 561.695312 631.894531 567.605469 624.804688 573.730469 L 624.824219 573.730469 C 624.824219 573.730469 624.785156 573.75 624.785156 573.75 C 623.195312 575.054688 621.5 576.859375 619.664062 578.617188 C 617.828125 580.371094 615.855469 582.113281 613.566406 583.273438 C 612.050781 584.042969 610.375 584.546875 608.570312 584.546875 C 607.125 584.546875 605.625 584.21875 604.105469 583.519531 C 595.28125 579.558594 588.507812 572.847656 582.207031 566.136719 C 579.414062 563.839844 575.011719 559.972656 570.570312 555.355469 C 566.085938 550.6875 561.550781 545.257812 558.574219 539.832031 C 556.59375 536.21875 555.28125 532.574219 555.28125 529.054688 C 555.28125 527.242188 555.640625 525.464844 556.460938 523.824219 C 557.25 522.234375 558.460938 520.785156 560.082031 519.546875 C 572.171875 506.820312 582.628906 492.539062 595.980469 480.511719 C 599.191406 477.003906 601.921875 473.023438 604.722656 469 C 607.523438 464.980469 610.40625 460.914062 613.988281 457.292969 C 613.988281 457.292969 614.007812 457.273438 614.007812 457.261719 C 617.816406 453.21875 622.054688 449.742188 626.242188 446.292969 C 630.4375 442.847656 634.585938 439.441406 638.226562 435.582031 C 643.859375 429.457031 649.167969 422.910156 655.46875 417.113281 L 655.507812 417.070312 L 655.558594 417.03125 C 658.402344 414.816406 661.140625 412.085938 663.996094 409.398438 C 654.480469 399.105469 645.933594 388.035156 635.652344 378.832031 L 635.640625 378.832031 C 635.640625 378.832031 635.621094 378.800781 635.621094 378.800781 C 612.039062 356.390625 587.492188 334.925781 564.546875 311.664062 C 563.972656 311.183594 563.457031 310.660156 562.996094 310.136719 C 561.992188 310.105469 560.964844 309.808594 560.050781 309.210938 C 559.078125 308.585938 558.234375 307.652344 557.539062 306.460938 L 557.464844 306.328125 L 557.414062 306.1875 C 556.738281 304.195312 556.417969 302.214844 556.417969 300.285156 C 556.417969 297.257812 557.179688 294.34375 558.410156 291.59375 C 559.640625 288.84375 561.34375 286.257812 563.261719 283.828125 C 567.121094 278.964844 571.894531 274.726562 575.761719 271.269531 C 578.0625 269.257812 580.65625 268.027344 583.234375 267.011719 C 585.757812 266.027344 588.261719 265.234375 590.53125 264.1875 C 593.648438 261.765625 596.851562 258.832031 600.246094 256.074219 C 603.695312 253.273438 607.371094 250.644531 611.472656 248.960938 C 614.214844 247.84375 617.148438 247.15625 620.300781 247.15625 C 620.472656 247.15625 620.648438 247.15625 620.824219 247.15625 L 621.046875 247.15625 C 621.046875 247.15625 621.265625 247.226562 621.265625 247.226562 C 624.464844 248.273438 626.9375 250.359375 629.042969 252.644531 C 631.148438 254.933594 632.921875 257.46875 634.695312 259.582031 L 634.738281 259.621094 L 634.769531 259.664062 C 639.324219 265.972656 644.855469 271.496094 650.714844 276.757812 C 662.261719 287.273438 674.6875 296.878906 686.027344 307.917969 C 691.394531 312.269531 697.417969 316.332031 702.128906 321.945312 C 702.128906 321.945312 702.140625 321.964844 702.140625 321.964844 C 704.921875 325.402344 707.394531 329.015625 710 332.410156 C 712.605469 335.808594 715.335938 339 718.628906 341.625 L 718.710938 341.6875 L 718.785156 341.757812 C 720.496094 343.554688 722.816406 345.246094 725.09375 347.105469 C 729.382812 341.617188 734.503906 336.691406 739.5625 331.816406 C 745.011719 326.574219 750.390625 321.390625 754.558594 315.707031 L 754.558594 315.6875 C 754.558594 315.6875 754.597656 315.65625 754.597656 315.65625 C 770.382812 296.121094 788.277344 278.65625 805.714844 260.84375 L 805.765625 260.792969 L 805.816406 260.75 C 810.023438 257.140625 814.40625 253.878906 818.449219 250.386719 C 822.492188 246.898438 826.195312 243.183594 829.121094 238.691406 L 829.140625 238.671875 L 829.160156 238.640625 C 830.34375 236.976562 831.695312 235.746094 833.183594 234.945312 C 834.703125 234.15625 836.292969 233.796875 837.863281 233.796875 C 840.140625 233.796875 842.359375 234.527344 844.421875 235.625 C 846.453125 236.710938 848.332031 238.1875 849.960938 239.820312 C 858.839844 247.648438 867.304688 255.816406 873.957031 265.890625 C 876.644531 268.753906 880.070312 272.253906 883.3125 276.132812 C 886.585938 280.042969 889.695312 284.351562 891.6875 288.867188 C 893.011719 291.882812 893.851562 295 893.851562 298.171875 C 893.851562 299.402344 893.730469 300.644531 893.441406 301.886719 L 893.402344 302.0625 L 893.320312 302.226562 C 887.542969 314.035156 878.695312 324.367188 869.492188 333.449219 L 869.449219 333.488281 L 869.417969 333.507812 C 852.855469 348.039062 835.09375 361.101562 819.761719 376.625 C 813.039062 384.527344 807.386719 393.453125 799.351562 400.582031 C 801.28125 401.804688 803.148438 403.148438 804.921875 404.65625 C 833.492188 427.25 858.296875 454.226562 881.46875 482.0625 L 881.488281 482.082031 C 885.859375 487.5625 890.691406 492.917969 894.242188 499.34375 C 895.496094 500.246094 896.4375 501.433594 897.042969 502.757812 C 897.710938 504.207031 898.03125 505.785156 898.03125 507.355469 Z M 880.726562 503.660156 C 875.855469 496.324219 869.417969 490.40625 862.460938 484.84375 C 855.105469 478.964844 847.203125 473.476562 840.140625 467.03125 C 840.140625 467.03125 840.132812 467.011719 840.132812 467.011719 C 822.285156 450.058594 806.308594 431.4375 788.792969 414.433594 L 788.75 414.394531 L 788.730469 414.363281 C 787.386719 412.886719 785.425781 411.417969 783.628906 409.675781 C 782.859375 409.417969 782.160156 409.027344 781.566406 408.535156 C 780.867188 407.949219 780.304688 407.253906 779.875 406.484375 C 779 404.945312 778.609375 403.179688 778.609375 401.457031 C 778.609375 400.582031 778.722656 399.722656 778.929688 398.902344 C 778.929688 398.902344 778.929688 398.871094 778.941406 398.847656 C 778.941406 398.839844 778.941406 398.828125 778.941406 398.808594 C 779.238281 397.445312 779.800781 396.242188 780.519531 395.207031 C 781.25 394.148438 782.132812 393.257812 783.042969 392.445312 C 784.882812 390.847656 786.894531 389.5625 788.441406 388.199219 C 802.613281 374.878906 818.285156 363.6875 833.480469 351.898438 C 837.011719 348.859375 840.070312 345.300781 843.097656 341.617188 C 846.125 337.933594 849.109375 334.125 852.539062 330.617188 C 862.246094 320.191406 871.265625 311.386719 880.296875 301.1875 C 872.414062 295.144531 864.289062 289.007812 857.484375 281.46875 L 857.472656 281.46875 C 857.472656 281.46875 857.445312 281.425781 857.445312 281.425781 C 853.308594 276.472656 849.910156 271.085938 846.464844 265.832031 C 843.324219 261.039062 840.132812 256.351562 836.355469 252.144531 C 823.753906 265.367188 810.710938 277.9375 799.976562 292.519531 L 799.9375 292.570312 L 799.882812 292.621094 C 789.796875 303.980469 778.34375 313.890625 768.195312 324.871094 C 757.285156 337.808594 746.582031 350.933594 734.75 363.214844 L 734.667969 363.296875 L 734.578125 363.367188 C 733.40625 364.261719 732.277344 365.820312 731.089844 367.484375 C 729.886719 369.144531 728.613281 370.917969 726.839844 372.191406 C 725.660156 373.035156 724.183594 373.609375 722.519531 373.609375 C 722.222656 373.609375 721.925781 373.585938 721.617188 373.558594 L 721.511719 373.558594 C 721.511719 373.558594 721.421875 373.527344 721.421875 373.527344 C 720.496094 373.300781 719.675781 372.871094 719 372.316406 C 718.402344 371.832031 717.933594 371.25 717.542969 370.632812 C 717.019531 370.203125 716.496094 369.710938 716.011719 369.113281 C 708.296875 359.960938 698.535156 352.246094 691.160156 342.058594 C 680.9375 331.5 671.589844 320.34375 663.195312 308.269531 C 649.136719 292.703125 632.992188 279.078125 618.402344 263.707031 C 612.519531 270.4375 606.578125 277.363281 599.589844 283.222656 C 599.589844 283.222656 599.589844 283.222656 599.582031 283.222656 C 599.582031 283.222656 599.558594 283.234375 599.558594 283.242188 C 596.234375 286.199219 592.5 288.382812 588.816406 290.457031 C 585.121094 292.539062 581.488281 294.519531 578.296875 297.023438 C 576.5625 298.5 574.859375 299.96875 573.269531 301.515625 C 586.261719 313.449219 601.550781 322.890625 614.964844 334.824219 L 615.015625 334.875 L 615.054688 334.925781 C 627.996094 348.707031 642.148438 361.398438 655.703125 374.777344 L 655.734375 374.808594 L 655.753906 374.839844 C 660.535156 380.09375 665.277344 385.214844 671.046875 389.03125 L 671.097656 389.0625 L 671.136719 389.101562 C 673.179688 390.691406 675.570312 392.179688 677.859375 393.914062 C 680.148438 395.648438 682.34375 397.628906 683.894531 400.296875 C 684.796875 401.84375 685.175781 403.621094 685.21875 405.394531 C 685.574219 406.515625 685.761719 407.683594 685.761719 408.851562 C 685.761719 410.21875 685.523438 411.582031 685.011719 412.824219 L 684.980469 412.894531 L 684.941406 412.96875 C 681.996094 418.445312 677.808594 423.003906 673.386719 427.242188 C 668.953125 431.476562 664.273438 435.40625 660.261719 439.59375 C 647.320312 453.242188 633.671875 466.179688 621.613281 480.402344 C 612.222656 493.226562 598.925781 501.34375 586.742188 510.320312 C 581.058594 515.316406 575.753906 520.816406 570.292969 526.214844 C 573.90625 529.292969 578.050781 531.796875 582.269531 534.351562 C 586.957031 537.203125 591.71875 540.128906 595.816406 544.078125 L 595.84375 544.109375 L 595.875 544.140625 C 602.074219 550.859375 608.601562 557.613281 613.722656 565.492188 C 620.0625 559.5625 625.75 552.871094 631.433594 546.089844 C 637.519531 538.835938 643.613281 531.488281 650.59375 524.910156 C 656.175781 519.144531 662.683594 514.703125 668.992188 510.207031 C 675.335938 505.703125 681.472656 501.167969 686.398438 495.300781 L 686.429688 495.269531 L 686.449219 495.246094 C 696.945312 483.878906 707.445312 472.5625 716.496094 460.136719 L 716.566406 460.035156 L 716.648438 459.953125 C 718.21875 458.402344 719.523438 456.226562 720.878906 453.9375 C 722.230469 451.660156 723.636719 449.257812 725.597656 447.320312 C 726.902344 446.027344 728.480469 444.949219 730.421875 444.34375 L 730.648438 444.273438 L 730.882812 444.273438 C 732.214844 444.273438 733.417969 444.507812 734.472656 444.949219 C 735.519531 445.390625 736.414062 446.058594 737.113281 446.859375 C 738.332031 448.273438 738.9375 450.058594 739.113281 451.898438 C 756.652344 464.753906 771.324219 479.960938 786.09375 495.730469 C 794.640625 503.382812 803.886719 510.710938 810.289062 520.910156 C 818.601562 531.035156 825.5 542.386719 834.804688 550.964844 C 847.941406 536.609375 859.703125 520.652344 875.761719 508.597656 L 875.8125 508.554688 L 875.84375 508.535156 C 876.089844 508.382812 876.324219 508.25 876.570312 508.105469 C 877.699219 506.351562 879.097656 504.789062 880.726562 503.621094 Z M 880.726562 503.660156 " fill-opacity="1" fill-rule="nonzero"/></g></svg>