<svg xmlns="http://www.w3.org/2000/svg" xmlns:xlink="http://www.w3.org/1999/xlink" width="1920" zoomAndPan="magnify" viewBox="0 0 1440 809.999993" height="1080" preserveAspectRatio="xMidYMid meet" version="1.0"><defs><clipPath id="7bbe346a5b"><path d="M 266 145.777344 L 1218.222656 145.777344 L 1218.222656 664.21875 L 266 664.21875 Z M 266 145.777344 " clip-rule="nonzero"/></clipPath><clipPath id="f6f446f812"><path d="M 1190.472656 664.21875 L 293.304688 664.21875 C 277.980469 664.21875 265.554688 651.792969 265.554688 636.46875 L 265.554688 173.527344 C 265.554688 158.199219 277.980469 145.777344 293.304688 145.777344 L 1190.472656 145.777344 C 1205.796875 145.777344 1218.222656 158.199219 1218.222656 173.527344 L 1218.222656 636.46875 C 1218.222656 651.792969 1205.796875 664.21875 1190.472656 664.21875 Z M 1190.472656 664.21875 " clip-rule="nonzero"/></clipPath><clipPath id="c781d41660"><path d="M 265.722656 145.96875 L 1218.21875 145.96875 L 1218.21875 664.21875 L 265.722656 664.21875 Z M 265.722656 145.96875 " clip-rule="nonzero"/></clipPath><clipPath id="ea02c7cb60"><path d="M 1190.46875 664.21875 L 293.308594 664.21875 C 277.984375 664.21875 265.558594 651.792969 265.558594 636.46875 L 265.558594 173.53125 C 265.558594 158.203125 277.984375 145.78125 293.308594 145.78125 L 1190.46875 145.78125 C 1205.796875 145.78125 1218.21875 158.203125 1218.21875 173.53125 L 1218.21875 636.46875 C 1218.21875 651.792969 1205.796875 664.21875 1190.46875 664.21875 Z M 1190.46875 664.21875 " clip-rule="nonzero"/></clipPath><clipPath id="64d7f3462b"><path d="M 404 259 L 1038.597656 259 L 1038.597656 551.828125 L 404 551.828125 Z M 404 259 " clip-rule="nonzero"/></clipPath></defs><g clip-path="url(#7bbe346a5b)"><g clip-path="url(#f6f446f812)"><path fill="#ffffff" d="M 1218.222656 664.21875 L 266.398438 664.21875 L 266.398438 145.777344 L 1218.222656 145.777344 Z M 1218.222656 664.21875 " fill-opacity="1" fill-rule="nonzero"/></g></g><g clip-path="url(#c781d41660)"><g clip-path="url(#ea02c7cb60)"><path stroke-linecap="butt" transform="matrix(-0.75, 0, 0, -0.75, 1218.219089, 664.217099)" fill="none" stroke-linejoin="miter" d="M 37.000454 -0.00220189 L 1233.214056 -0.00220189 C 1253.646348 -0.00220189 1270.214057 16.565507 1270.214057 36.9978 L 1270.214057 654.247831 C 1270.214057 674.685332 1253.646348 691.247833 1233.214056 691.247833 L 37.000454 691.247833 C 16.562953 691.247833 0.000451914 674.685332 0.000451914 654.247831 L 0.000451914 36.9978 C 0.000451914 16.565507 16.562953 -0.00220189 37.000454 -0.00220189 Z M 37.000454 -0.00220189 " stroke="#000000" stroke-width="22" stroke-opacity="1" stroke-miterlimit="4"/></g></g><path fill="#d56798" d="M 1029.40625 480.351562 L 1029.40625 334.914062 L 570.5 334.914062 L 570.5 266.820312 L 413.359375 398.910156 L 569.667969 544.710938 L 569.667969 480.351562 Z M 1029.40625 480.351562 " fill-opacity="1" fill-rule="nonzero"/><g clip-path="url(#64d7f3462b)"><path fill="#000000" d="M 404.597656 400.890625 C 404.757812 401.203125 404.964844 401.507812 405.257812 401.808594 C 444.121094 440.679688 481.628906 480.714844 521.917969 518.394531 C 532.976562 528.738281 544.253906 538.882812 555.832031 548.738281 C 558.824219 550.890625 560.863281 551.769531 563.695312 551.789062 C 566.214844 551.808594 568.730469 551.675781 571.253906 551.6875 C 574.75 551.234375 577.96875 548.050781 578.039062 543.511719 C 578.339844 524.664062 578.644531 505.824219 578.945312 486.976562 C 580.773438 486.984375 582.597656 486.988281 584.425781 486.992188 C 595.570312 487.019531 606.707031 487.042969 617.851562 487.066406 C 634.242188 487.105469 650.628906 487.140625 667.011719 487.179688 C 687.097656 487.226562 707.183594 487.273438 727.269531 487.316406 C 749.277344 487.367188 771.285156 487.417969 793.292969 487.472656 C 815.503906 487.519531 837.71875 487.574219 859.9375 487.625 C 880.554688 487.671875 901.167969 487.71875 921.789062 487.765625 C 939.304688 487.804688 956.816406 487.84375 974.332031 487.882812 C 986.925781 487.914062 999.519531 487.945312 1012.113281 487.96875 C 1018.070312 487.984375 1024.046875 488.144531 1030 488.007812 C 1030.257812 488.003906 1030.507812 488.007812 1030.765625 488.007812 C 1037.382812 488.027344 1037.730469 482.402344 1037.5625 476.65625 C 1037.675781 460.984375 1037.789062 445.3125 1037.910156 429.640625 C 1038.097656 403.953125 1038.28125 378.261719 1038.46875 352.578125 C 1038.515625 346.667969 1038.554688 340.765625 1038.597656 334.855469 C 1038.609375 333.71875 1038.390625 332.726562 1038.042969 331.847656 C 1037.285156 328.765625 1034.875 326.148438 1030.765625 326.140625 C 1026.671875 326.128906 1022.574219 326.121094 1018.480469 326.109375 C 1007.339844 326.085938 996.199219 326.0625 985.054688 326.035156 C 968.667969 325.996094 952.28125 325.960938 935.894531 325.921875 C 915.808594 325.878906 895.722656 325.828125 875.636719 325.785156 C 853.628906 325.734375 831.625 325.6875 809.617188 325.632812 C 787.402344 325.582031 765.1875 325.527344 742.96875 325.480469 C 722.351562 325.429688 701.738281 325.386719 681.121094 325.335938 C 663.605469 325.296875 646.09375 325.257812 628.578125 325.21875 C 615.980469 325.1875 603.390625 325.160156 590.792969 325.136719 C 586.582031 325.125 582.367188 325.074219 578.152344 325.070312 C 578.417969 308.429688 578.683594 291.792969 578.953125 275.15625 C 579 272.429688 579.042969 269.703125 579.089844 266.96875 C 579.191406 260.492188 572.78125 258.199219 568.132812 260.039062 C 567.945312 260.042969 563.421875 261.75 558.238281 264.953125 C 518.695312 295.964844 481.574219 329.589844 444.132812 362.652344 C 431.894531 373.457031 419.664062 384.265625 407.410156 395.054688 C 406.855469 395.464844 406.316406 395.925781 405.84375 396.429688 C 404.308594 397.757812 403.65625 399.328125 404.597656 400.890625 Z M 546.339844 290.910156 C 551.035156 286.976562 555.75 283.0625 560.503906 279.1875 C 561.417969 278.4375 562.34375 277.699219 563.265625 276.953125 C 563.015625 292.585938 562.761719 308.21875 562.511719 323.847656 C 562.46875 326.578125 562.425781 329.304688 562.378906 332.039062 C 562.316406 335.894531 564.546875 340.398438 572.148438 340.765625 C 576.246094 340.773438 580.339844 340.785156 584.429688 340.792969 C 595.574219 340.820312 606.714844 340.84375 617.855469 340.867188 C 634.246094 340.90625 650.632812 340.941406 667.015625 340.980469 C 687.101562 341.027344 707.191406 341.074219 727.277344 341.121094 C 749.28125 341.167969 771.289062 341.21875 793.296875 341.273438 C 815.511719 341.320312 837.722656 341.375 859.941406 341.425781 C 880.5625 341.472656 901.175781 341.519531 921.792969 341.566406 C 939.308594 341.605469 956.820312 341.644531 974.335938 341.6875 C 986.933594 341.714844 999.523438 341.746094 1012.121094 341.769531 C 1015.703125 341.777344 1019.292969 341.820312 1022.882812 341.839844 C 1022.78125 355.714844 1022.683594 369.585938 1022.578125 383.464844 C 1022.390625 409.148438 1022.207031 434.839844 1022.019531 460.523438 C 1021.988281 464.460938 1021.957031 468.394531 1021.933594 472.328125 C 1020.785156 472.324219 1019.632812 472.324219 1018.488281 472.320312 C 1007.34375 472.292969 996.203125 472.269531 985.0625 472.246094 C 968.671875 472.207031 952.285156 472.171875 935.902344 472.132812 C 915.816406 472.085938 895.726562 472.039062 875.640625 471.992188 C 853.636719 471.945312 831.628906 471.894531 809.621094 471.839844 C 787.40625 471.792969 765.195312 471.738281 742.976562 471.6875 C 722.355469 471.640625 701.742188 471.59375 681.125 471.546875 C 663.609375 471.507812 646.097656 471.464844 628.582031 471.425781 C 615.984375 471.398438 603.394531 471.367188 590.796875 471.34375 C 585.207031 471.328125 579.601562 471.207031 574.007812 471.300781 C 568.019531 471.308594 563.527344 472.253906 563.421875 478.449219 C 563.132812 496.625 562.835938 514.800781 562.546875 532.980469 C 524.699219 499.773438 489.839844 463.847656 454.875 428.152344 C 444.777344 417.839844 434.640625 407.554688 424.445312 397.320312 C 464.886719 361.683594 504.941406 325.636719 546.339844 290.910156 Z M 546.339844 290.910156 " fill-opacity="1" fill-rule="nonzero"/></g></svg>