<svg xmlns="http://www.w3.org/2000/svg" xmlns:xlink="http://www.w3.org/1999/xlink" width="1920" zoomAndPan="magnify" viewBox="0 0 1440 809.999993" height="1080" preserveAspectRatio="xMidYMid meet" version="1.0"><defs><clipPath id="bd78270970"><path d="M 265.558594 145.78125 L 1218 145.78125 L 1218 664.21875 L 265.558594 664.21875 Z M 265.558594 145.78125 " clip-rule="nonzero"/></clipPath><clipPath id="3bfdfb2eca"><path d="M 293.308594 145.78125 L 1190.472656 145.78125 C 1205.796875 145.78125 1218.222656 158.203125 1218.222656 173.53125 L 1218.222656 636.46875 C 1218.222656 651.796875 1205.796875 664.21875 1190.472656 664.21875 L 293.308594 664.21875 C 277.980469 664.21875 265.558594 651.796875 265.558594 636.46875 L 265.558594 173.53125 C 265.558594 158.203125 277.980469 145.78125 293.308594 145.78125 Z M 293.308594 145.78125 " clip-rule="nonzero"/></clipPath><clipPath id="7daf1ccab8"><path d="M 265.558594 145.78125 L 1218.058594 145.78125 L 1218.058594 664.03125 L 265.558594 664.03125 Z M 265.558594 145.78125 " clip-rule="nonzero"/></clipPath><clipPath id="7f305f9d8f"><path d="M 293.308594 145.78125 L 1190.46875 145.78125 C 1205.792969 145.78125 1218.21875 158.203125 1218.21875 173.53125 L 1218.21875 636.46875 C 1218.21875 651.792969 1205.792969 664.21875 1190.46875 664.21875 L 293.308594 664.21875 C 277.984375 664.21875 265.558594 651.792969 265.558594 636.46875 L 265.558594 173.53125 C 265.558594 158.203125 277.984375 145.78125 293.308594 145.78125 Z M 293.308594 145.78125 " clip-rule="nonzero"/></clipPath><clipPath id="5daa80ee90"><path d="M 445.175781 258.167969 L 1080 258.167969 L 1080 551 L 445.175781 551 Z M 445.175781 258.167969 " clip-rule="nonzero"/></clipPath></defs><g clip-path="url(#bd78270970)"><g clip-path="url(#3bfdfb2eca)"><path fill="#ffffff" d="M 265.558594 145.78125 L 1217.382812 145.78125 L 1217.382812 664.21875 L 265.558594 664.21875 Z M 265.558594 145.78125 " fill-opacity="1" fill-rule="nonzero"/></g></g><g clip-path="url(#7daf1ccab8)"><g clip-path="url(#7f305f9d8f)"><path stroke-linecap="butt" transform="matrix(0.75, 0, 0, 0.75, 265.559964, 145.779622)" fill="none" stroke-linejoin="miter" d="M 36.998175 0.00217031 L 1233.211777 0.00217031 C 1253.649278 0.00217031 1270.211778 16.564671 1270.211778 37.002172 L 1270.211778 654.252203 C 1270.211778 674.684496 1253.649278 691.252205 1233.211777 691.252205 L 36.998175 691.252205 C 16.565882 691.252205 -0.00182708 674.684496 -0.00182708 654.252203 L -0.00182708 37.002172 C -0.00182708 16.564671 16.565882 0.00217031 36.998175 0.00217031 Z M 36.998175 0.00217031 " stroke="#000000" stroke-width="22" stroke-opacity="1" stroke-miterlimit="4"/></g></g><path fill="#d56798" d="M 454.371094 329.644531 L 454.371094 475.082031 L 913.277344 475.082031 L 913.277344 543.175781 L 1070.417969 411.085938 L 914.109375 265.285156 L 914.109375 329.644531 Z M 454.371094 329.644531 " fill-opacity="1" fill-rule="nonzero"/><g clip-path="url(#5daa80ee90)"><path fill="#000000" d="M 1079.175781 409.105469 C 1079.019531 408.792969 1078.8125 408.488281 1078.515625 408.1875 C 1039.65625 369.316406 1002.144531 329.28125 961.859375 291.601562 C 950.800781 281.257812 939.523438 271.113281 927.945312 261.257812 C 924.953125 259.105469 922.914062 258.226562 920.082031 258.207031 C 917.558594 258.1875 915.042969 258.320312 912.523438 258.308594 C 909.027344 258.757812 905.804688 261.945312 905.738281 266.484375 C 905.4375 285.332031 905.132812 304.171875 904.832031 323.015625 C 903.003906 323.011719 901.175781 323.007812 899.351562 323.003906 C 888.207031 322.976562 877.066406 322.953125 865.921875 322.929688 C 849.535156 322.890625 833.148438 322.855469 816.765625 322.816406 C 796.675781 322.769531 776.589844 322.722656 756.503906 322.675781 C 734.496094 322.628906 712.492188 322.578125 690.484375 322.523438 C 668.269531 322.476562 646.054688 322.421875 623.835938 322.371094 C 603.21875 322.324219 582.605469 322.277344 561.988281 322.230469 C 544.472656 322.191406 526.960938 322.152344 509.445312 322.113281 C 496.847656 322.082031 484.257812 322.050781 471.660156 322.027344 C 465.707031 322.011719 459.730469 321.851562 453.777344 321.988281 C 453.519531 321.992188 453.269531 321.988281 453.011719 321.988281 C 446.394531 321.96875 446.042969 327.59375 446.210938 333.339844 C 446.097656 349.011719 445.984375 364.683594 445.867188 380.355469 C 445.679688 406.042969 445.492188 431.730469 445.304688 457.417969 C 445.261719 463.328125 445.222656 469.230469 445.175781 475.140625 C 445.167969 476.277344 445.382812 477.269531 445.734375 478.148438 C 446.492188 481.230469 448.902344 483.847656 453.011719 483.855469 C 457.105469 483.867188 461.203125 483.875 465.292969 483.886719 C 476.4375 483.910156 487.578125 483.933594 498.71875 483.960938 C 515.109375 484 531.496094 484.035156 547.878906 484.074219 C 567.964844 484.117188 588.050781 484.167969 608.140625 484.210938 C 630.144531 484.261719 652.152344 484.308594 674.160156 484.363281 C 696.375 484.414062 718.585938 484.46875 740.804688 484.515625 C 761.425781 484.566406 782.039062 484.609375 802.65625 484.660156 C 820.171875 484.699219 837.683594 484.738281 855.199219 484.777344 C 867.792969 484.808594 880.386719 484.835938 892.984375 484.859375 C 897.191406 484.871094 901.410156 484.921875 905.625 484.925781 C 905.359375 501.5625 905.09375 518.203125 904.820312 534.839844 C 904.777344 537.566406 904.730469 540.292969 904.6875 543.027344 C 904.585938 549.503906 910.996094 551.796875 915.644531 549.957031 C 915.832031 549.949219 920.351562 548.246094 925.539062 545.042969 C 965.082031 514.03125 1002.199219 480.40625 1039.644531 447.34375 C 1051.882812 436.539062 1064.113281 425.730469 1076.367188 414.941406 C 1076.921875 414.53125 1077.457031 414.070312 1077.929688 413.566406 C 1079.46875 412.238281 1080.117188 410.664062 1079.175781 409.105469 Z M 937.433594 519.085938 C 932.742188 523.019531 928.023438 526.933594 923.273438 530.808594 C 922.355469 531.558594 921.429688 532.296875 920.511719 533.039062 C 920.761719 517.410156 921.011719 501.777344 921.261719 486.144531 C 921.308594 483.417969 921.351562 480.691406 921.394531 477.957031 C 921.460938 474.101562 919.230469 469.59375 911.625 469.230469 C 907.53125 469.222656 903.4375 469.210938 899.34375 469.203125 C 888.203125 469.175781 877.0625 469.152344 865.917969 469.128906 C 849.53125 469.089844 833.140625 469.054688 816.757812 469.015625 C 796.671875 468.96875 776.585938 468.921875 756.5 468.875 C 734.492188 468.828125 712.484375 468.777344 690.480469 468.722656 C 668.265625 468.675781 646.050781 468.621094 623.832031 468.570312 C 603.214844 468.523438 582.601562 468.476562 561.984375 468.429688 C 544.46875 468.390625 526.957031 468.351562 509.441406 468.308594 C 496.84375 468.28125 484.253906 468.25 471.65625 468.226562 C 468.070312 468.214844 464.480469 468.175781 460.890625 468.15625 C 460.996094 454.28125 461.09375 440.410156 461.195312 426.53125 C 461.382812 400.847656 461.570312 375.15625 461.757812 349.472656 C 461.789062 345.535156 461.816406 341.601562 461.839844 337.667969 C 462.988281 337.671875 464.140625 337.671875 465.289062 337.675781 C 476.433594 337.703125 487.570312 337.726562 498.714844 337.75 C 515.101562 337.789062 531.492188 337.824219 547.875 337.863281 C 567.960938 337.910156 588.046875 337.957031 608.132812 338.003906 C 630.140625 338.050781 652.148438 338.101562 674.15625 338.15625 C 696.367188 338.203125 718.582031 338.257812 740.800781 338.308594 C 761.417969 338.355469 782.03125 338.402344 802.652344 338.449219 C 820.167969 338.488281 837.675781 338.527344 855.195312 338.570312 C 867.789062 338.597656 880.382812 338.628906 892.976562 338.652344 C 898.566406 338.667969 904.175781 338.789062 909.769531 338.695312 C 915.757812 338.6875 920.25 337.742188 920.351562 331.546875 C 920.644531 313.371094 920.9375 295.195312 921.230469 277.015625 C 959.078125 310.222656 993.9375 346.148438 1028.898438 381.84375 C 1039 392.15625 1049.132812 402.441406 1059.332031 412.675781 C 1018.886719 448.3125 978.835938 484.359375 937.433594 519.085938 Z M 937.433594 519.085938 " fill-opacity="1" fill-rule="nonzero"/></g></svg>